<svg xmlns="http://www.w3.org/2000/svg" width="999.925" height="143.269" viewBox="0 0 1913 274.094">
  <defs>
    <style>
      .cls-1 {
        fill-rule: evenodd;
      }
    </style>
  </defs>
  <path id="Farbfüllung_4" data-name="Farbfüllung 4" class="cls-1" d="M2439,13h188v1h7c22.69,6.911,38.59,14.725,51,32,1.33,1,2.67,2,4,3v2c0.67,0.333,1.33.667,2,1,0.33,1,.67,2,1,3h1c0.33,1.333.67,2.667,1,4,6.54,10.408,11,22.989,11,40v16h-1v6h-1v4h-1v3h-1v3h-1v3h-1v3h-1c-0.33,1.333-.67,2.667-1,4h-1c-0.33,1.333-.67,2.667-1,4-0.67.333-1.33,0.667-2,1-0.33,1.333-.67,2.667-1,4-0.67.333-1.33,0.667-2,1v2l-3,2v2c-1.67,1.333-3.33,2.667-5,4v2c-1.33,1-2.67,2-4,3v1h-2c-1.33,1.667-2.67,3.333-4,5h-2c-0.67,1-1.33,2-2,3h-2c-0.33.667-.67,1.333-1,2h-2c-0.33.667-.67,1.333-1,2l-4,1v1l-6,2v1l-21,6h75v92H2604v-1h-5v-1h-4v-1h-4v-1h-3v-1h-3v-1h-3v-1l-6-2v-1h-2v-1l-4-1c-0.33-.667-0.67-1.333-1-2h-2c-0.33-.667-0.67-1.333-1-2h-2c-0.67-1-1.33-2-2-3h-2l-6-7q-3.495-3-7-6v-2l-3-2v-2c-0.67-.333-1.33-0.667-2-1-0.33-1-.67-2-1-3h-1c-0.33-1.333-.67-2.667-1-4h-1v-2c-0.67-.333-1.33-0.667-2-1v-3h-1v-2h-1c-0.33-1.667-.67-3.333-1-5h-1v-3h-1v-4h-1c-1.06-3.171-.05-6.806-2-9v76h-89V13Zm-279,2v89h-58c-4.72,0-18.63-1.072-21,1,7.69-.041,12.76,1.9,18,4h3v1h2v1h3v1h2v1h2v1l4,1c0.33,0.667.67,1.333,1,2l4,1c0.33,0.667.67,1.333,1,2h2l3,4h2q3.495,4,7,8c1.33,1,2.67,2,4,3v2c1.33,1,2.67,2,4,3v2c0.67,0.333,1.33.667,2,1v2c0.67,0.333,1.33.667,2,1,0.33,1.333.67,2.667,1,4,0.67,0.333,1.33.667,2,1v2h1v3h1v2h1c0.33,1.667.67,3.333,1,5h1v4h1v3h1v4h1c1.1,3.5,2.34,27.339,1,32h-1v6h-1v4h-1v3h-1v3h-1v3h-1v3h-1c-0.67,2-1.33,4-2,6h-1v2c-0.67.333-1.33,0.667-2,1-0.33,1.333-.67,2.667-1,4-0.67.333-1.33,0.667-2,1v2c-0.67.333-1.33,0.667-2,1-0.33,1-.67,2-1,3-1.67,1.333-3.33,2.667-5,4v2c-1.33,1-2.67,2-4,3v1h-2c-1.33,1.666-2.67,3.334-4,5h-2c-0.67,1-1.33,2-2,3h-2c-0.33.667-.67,1.333-1,2l-3,1v1l-4,1v1l-6,2v1h-3v1h-2v1h-3v1h-4c-16.79,5.635-42.65,4-65,4H1893V193c15.38-2.7,35.88-1,53-1,6.75,0,16.13,1.28,20,0v-1c-7.09-.014-10.22-2.07-15-4h-3v-1h-2v-1h-2v-1h-2v-1l-4-1v-1l-4-1c-0.33-.667-0.67-1.333-1-2h-2c-0.67-1-1.33-2-2-3h-2l-3-4h-2c-1.33-1.667-2.67-3.333-4-5-0.67-.333-1.33-0.667-2-1v-2c-1.67-1.333-3.33-2.667-5-4v-2l-3-2v-2c-0.67-.333-1.33-0.667-2-1-0.33-1.333-.67-2.667-1-4-0.67-.333-1.33-0.667-2-1v-2h-1c-0.33-1.333-.67-2.667-1-4h-1v-3h-1v-2h-1v-3h-1v-3c-1.66-4.258-6.04-18.779-4-26h1q0.495-9.5,1-19h1V81h1V78h1V75h1V72h1V69h1c0.67-2,1.33-4,2-6h1V61c0.67-.333,1.33-0.667,2-1,0.33-1.333.67-2.667,1-4,0.67-.333,1.33-0.667,2-1V53c0.67-.333,1.33-0.667,2-1,0.33-1,.67-2,1-3,1.67-1.333,3.33-2.667,5-4V43c1.33-1,2.67-2,4-3V39h2c1.33-1.666,2.67-3.334,4-5h2c0.67-1,1.33-2,2-3h2c0.33-.667.67-1.333,1-2l3-1V27l4-1V25l6-2V22h3V21h2V20h3V19h4c16.79-5.634,42.65-4,65-4h136Zm272,89c0.09,19.184-2.89,30.385-10,42-0.67,2-1.33,4-2,6-0.67.333-1.33,0.667-2,1v2l-3,2v2c-1.33,1-2.67,2-4,3v2q-3.495,3-7,6c-0.33.667-.67,1.333-1,2h-2l-3,4-3,1c-0.33.667-.67,1.333-1,2l-4,1c-0.33.667-.67,1.333-1,2l-4,1v1l-4,1v1c-1.67.333-3.33,0.667-5,1v1h-2v1l-7,1v1c-3.16,1.107-7.78.066-10,2h75v89H2243v-1h-5v-1h-4v-1h-4v-1h-3v-1h-3v-1h-3v-1l-6-2v-1h-2v-1l-4-1c-0.33-.667-0.67-1.333-1-2h-2c-0.33-.667-0.67-1.333-1-2h-2c-0.67-1-1.33-2-2-3h-2l-6-7q-3.495-3-7-6v-2l-3-2v-2c-0.67-.333-1.33-0.667-2-1v-2c-0.67-.333-1.33-0.667-2-1-0.67-2-1.33-4-2-6-0.67-.333-1.33-0.667-2-1v-3h-1v-2h-1c-0.33-1.667-.67-3.333-1-5h-1v-3h-1v-4h-1v-4h-1v-5h-1V196c-1.47-5.245-1-14.15-1-21V16a10.6,10.6,0,0,1,4-1v1h1c3.19-1.284,9.27-1,14-1h231c4.94,0,11.63-.621,15,1V15h1V32h-1v5h-1v3h-1v4h-1v2h-1c-0.33,2-.67,4-1,6h-1c-0.33,1.333-.67,2.667-1,4h-1v2c-0.67.333-1.33,0.667-2,1-0.67,2-1.33,4-2,6l-3,2v2c-1.33,1-2.67,2-4,3v2q-3.495,3-7,6c-1.33,1.666-2.67,3.334-4,5h-2c-0.67,1-1.33,2-2,3h-2c-0.33.667-.67,1.333-1,2h-2c-0.33.667-.67,1.333-1,2l-6,2c-0.33.667-.67,1.333-1,2l-5,1v1h-2v1l-18,5h73ZM1068,17h89V99h89V17h89V155c0,20.735,2.55,52.352-3,68h-1c-0.33,2-.67,4-1,6h-1c-0.33,1.333-.67,2.667-1,4h-1v3c-0.67.333-1.33,0.667-2,1v2h-1c-0.67,2-1.33,4-2,6-0.67.333-1.33,0.667-2,1v2c-0.67.333-1.33,0.667-2,1-0.33,1-.67,2-1,3-1.33,1-2.67,2-4,3v2l-6,5c-0.33.667-.67,1.333-1,2h-2c-1.33,1.666-2.67,3.334-4,5h-2c-0.33.667-.67,1.333-1,2h-2c-0.67,1-1.33,2-2,3l-6,2v1l-6,2v1l-21,6h-11c-5.53,1.537-14.85,1-22,1h-40c-18.93,0-39,.718-53-4h-4v-1h-3v-1h-2v-1h-3v-1l-6-2v-1l-6-2c-0.67-1-1.33-2-2-3h-2c-0.33-.667-0.67-1.333-1-2h-2c-1.33-1.666-2.67-3.334-4-5h-2c-1.67-2-3.33-4-5-6-0.67-.333-1.33-0.667-2-1v-2c-1.33-1-2.67-2-4-3-0.33-1-.67-2-1-3-0.67-.333-1.33-0.667-2-1v-2c-0.67-.333-1.33-0.667-2-1-0.67-2-1.33-4-2-6h-1v-2c-0.67-.333-1.33-0.667-2-1v-3h-1c-0.33-1.333-.67-2.667-1-4h-1c-0.33-2-.67-4-1-6h-1c-5.82-16.5-3-46.621-3-68V17Zm543,178v89H1421v-1h-5v-1h-4v-1h-4v-1h-3v-1h-3v-1h-3v-1l-6-2v-1h-2v-1l-4-1c-0.33-.667-0.67-1.333-1-2h-2c-0.33-.667-0.67-1.333-1-2h-2c-0.67-1-1.33-2-2-3h-2l-6-7q-3.495-3-7-6v-2l-3-2v-2c-0.67-.333-1.33-0.667-2-1v-2c-0.67-.333-1.33-0.667-2-1-0.67-2-1.33-4-2-6-0.67-.333-1.33-0.667-2-1v-3h-1v-2h-1c-0.33-1.667-.67-3.333-1-5h-1v-3h-1v-4h-1v-4h-1v-5h-1V198c-1.47-5.245-1-14.15-1-21V18a10.6,10.6,0,0,1,4-1v1h1V17h245c5.73,0,14.63-.337,16,1h1v8h-1v8h-1v5h-1v3h-1v4h-1v2h-1v3h-1v3h-1c-0.33,1.333-.67,2.667-1,4h-1v2c-0.67.333-1.33,0.667-2,1-0.67,2-1.33,4-2,6-0.67.333-1.33,0.667-2,1-0.33,1-.67,2-1,3-1.33,1-2.67,2-4,3v2c-1.67,1.333-3.33,2.667-5,4l-6,7h-2c-0.67,1-1.33,2-2,3h-2c-0.33.667-.67,1.333-1,2h-2c-0.33.667-.67,1.333-1,2l-6,2c-0.33.667-.67,1.333-1,2l-5,1v1h-2v1l-18,5h73c0.87,2.316,1.02,4.407,1,8q-1.995,10-4,20h-1c-0.33,2-.67,4-1,6h-1c-0.33,1.333-.67,2.667-1,4h-1v3c-0.67.333-1.33,0.667-2,1v2h-1c-0.33,1.333-.67,2.667-1,4-0.67.333-1.33,0.667-2,1v2c-0.67.333-1.33,0.667-2,1-0.33,1-.67,2-1,3-1.33,1-2.67,2-4,3v2q-3.495,3-7,6c-0.33.667-.67,1.333-1,2h-2l-3,4-3,1c-0.33.667-.67,1.333-1,2l-4,1c-0.33.667-.67,1.333-1,2l-4,1v1l-4,1v1h-3v1l-4,1v1h-4v1h-3v1c-3.16,1.107-7.79.063-10,2h76ZM1885,17v89h-58c-4.72,0-18.63-1.072-21,1,7.69-.041,12.76,1.9,18,4h3v1h2v1h3v1h2v1h2v1l4,1c0.33,0.667.67,1.333,1,2l4,1c0.33,0.667.67,1.333,1,2h2l3,4h2q3.495,4,7,8c1.33,1,2.67,2,4,3v2c1.33,1,2.67,2,4,3v2c0.67,0.333,1.33.667,2,1v2c0.67,0.333,1.33.667,2,1,0.33,1.333.67,2.667,1,4,0.67,0.333,1.33.667,2,1v2h1v3h1v2h1c0.33,1.667.67,3.333,1,5h1v4h1v3h1v4h1c1.1,3.5,2.34,27.339,1,32h-1v6h-1v4h-1v3h-1v3h-1v3h-1v3h-1c-0.67,2-1.33,4-2,6h-1v2c-0.67.333-1.33,0.667-2,1-0.33,1.333-.67,2.667-1,4-0.67.333-1.33,0.667-2,1v2c-0.67.333-1.33,0.667-2,1-0.33,1-.67,2-1,3-1.67,1.333-3.33,2.667-5,4v2c-1.33,1-2.67,2-4,3v1h-2c-1.33,1.666-2.67,3.334-4,5h-2c-0.67,1-1.33,2-2,3h-2c-0.33.667-.67,1.333-1,2l-3,1v1l-4,1v1l-6,2v1h-3v1h-2v1h-3v1h-4c-16.79,5.635-42.65,4-65,4H1618V195c15.38-2.7,35.88-1,53-1,6.75,0,16.13,1.28,20,0v-1c-7.09-.014-10.22-2.07-15-4h-3v-1h-2v-1h-2v-1h-2v-1l-4-1v-1l-4-1c-0.33-.667-0.67-1.333-1-2h-2c-0.67-1-1.33-2-2-3h-2l-3-4h-2c-1.33-1.667-2.67-3.333-4-5-0.67-.333-1.33-0.667-2-1v-2c-1.67-1.333-3.33-2.667-5-4v-2l-3-2v-2c-0.67-.333-1.33-0.667-2-1-0.33-1.333-.67-2.667-1-4-0.67-.333-1.33-0.667-2-1v-2h-1c-0.33-1.333-.67-2.667-1-4h-1v-3h-1v-2h-1v-3h-1v-3c-1.66-4.258-6.04-18.779-4-26h1q0.495-9.5,1-19h1V83h1V80h1V77h1V74h1V71h1c0.67-2,1.33-4,2-6h1V63c0.67-.333,1.33-0.667,2-1,0.33-1.333.67-2.667,1-4,0.67-.333,1.33-0.667,2-1V55c0.67-.333,1.33-0.667,2-1,0.33-1,.67-2,1-3,1.67-1.333,3.33-2.667,5-4V45c1.33-1,2.67-2,4-3V41h2c1.33-1.666,2.67-3.334,4-5h2c0.67-1,1.33-2,2-3h2c0.33-.667.67-1.333,1-2l3-1V29l4-1V27l6-2V24h3V23h2V22h3V21h4c16.79-5.634,42.65-4,65-4h136Zm-826,2v88h-51c-4.93,0-16.1-1.547-19,1l7,1v1h4v1l4,1v1h3v1h2v1h2v1l4,1c0.33,0.667.67,1.333,1,2l4,1c0.67,1,1.33,2,2,3h2l3,4c13.92,10.017,22.79,25.342,29,43v4c3.39,10.416,3,24.9,3,39v73H869v-1h-5v-1h-4v-1h-4v-1h-3v-1h-3v-1h-3v-1l-6-2v-1h-2v-1l-4-1q-0.5-1-1-2h-2q-0.5-1-1-2h-2l-2-3h-2l-6-7-7-6v-2l-3-2v-2l-2-1v-2l-2-1q-1-3-2-6l-2-1v-3h-1v-2h-1q-0.5-2.5-1-5h-1v-3h-1v-4h-1v-4h-1v-5h-1V94h1V89h1V85h1V81h1V78h1q0.5-2.5,1-5h1V71h1V68l2-1q1-3,2-6l2-1V58l2-1V55l3-2V51l6-5,7-8h2l2-3h2l1-2h2l1-2,4-1V29h2V28l6-2V25h3V24h3V23h3V22h4V21h4V20l21-1h174Zm909,173c1.14,1.139,0,.4,2,1C1968.86,191.861,1970,192.6,1968,192Zm-275,2c1.14,1.139,0,.4,2,1C1693.86,193.861,1695,194.6,1693,194Z" transform="translate(-793 -13)"/>
</svg>
