<svg xmlns="http://www.w3.org/2000/svg" width="749.742" height="147.407" viewBox="0 0 1365.65 268.5">
  <defs>
    <style>
      .cls-1 {
        fill-rule: evenodd;
      }
    </style>
  </defs>
  <path id="Farbfüllung_3" data-name="Farbfüllung 3" class="cls-1" d="M1422,18V154c0,21.081,2.76,50.793-3,67q-4.005,9.5-8,19c-0.67.333-1.33,0.667-2,1v2h-1c-0.33,1-.67,2-1,3-0.67.333-1.33,0.667-2,1v2c-1.67,1.333-3.33,2.667-5,4v2q-3.495,3-7,6c-0.33.667-.67,1.333-1,2h-2l-3,4h-2c-0.33.667-.67,1.333-1,2h-2c-0.33.667-.67,1.333-1,2l-4,1c-0.33.667-.67,1.333-1,2h-2v1h-2v1h-3v1l-4,1v1h-3c-8.88,3.532-26.62,7.532-39,4h-7v-1l-8-1v-1l-6-1v-1l-5-1v-1l-4-1v-1h-2c-0.33-.667-0.67-1.333-1-2l-4-1c-0.33-.667-0.67-1.333-1-2h-2c-0.33-.667-0.67-1.333-1-2h-2c-0.67-1-1.33-2-2-3h-2c-1.33-1.666-2.67-3.334-4-5q-3.495-3-7-6v-2l-3-2v-2l-3-2c-0.33-1.333-.67-2.667-1-4-0.67-.333-1.33-0.667-2-1-0.33-1.333-.67-2.667-1-4h-1c-0.67-2-1.33-4-2-6h-1c-0.33-2-.67-4-1-6h-1v-3h-1v-3h-1v-3h-1c-1.42-4.413.97-6.941-2-10,0.07,13.154-4.95,23.825-10,32-0.33,1.333-.67,2.667-1,4-0.67.333-1.33,0.667-2,1v2h-1v2l-3,2v2c-1.33,1-2.67,2-4,3v2l-6,5c-0.33.667-.67,1.333-1,2h-2l-3,4h-2c-0.67,1-1.33,2-2,3h-2c-0.33.667-.67,1.333-1,2l-6,2c-0.33.667-.67,1.333-1,2h-2v1h-3v1h-2v1l-5,1v1h-4c-8.58,2.893-24.52,6.343-36,3h-6v-1h-4v-1h-4v-1h-3v-1h-3v-1h-3v-1l-6-2v-1h-2v-1l-4-1c-0.33-.667-0.67-1.333-1-2h-2c-0.33-.667-0.67-1.333-1-2h-2c-0.67-1-1.33-2-2-3h-2l-6-7q-4.005-3.5-8-7v-2h-1c-0.33-1-.67-2-1-3l-3-2c-0.67-2-1.33-4-2-6-0.67-.333-1.33-0.667-2-1v-2h-1v-2h-1v-3h-1v-3h-1c-0.33-1.333-.67-2.667-1-4h-1v-4h-1v-4h-1v-5h-1v-9c-1.55-5.525-1-14.857-1-22V18c6.58-2.407,18.65-1,27-1h58v1h1V17h1v1c0.67-.333,1.33-0.667,2-1v1h1v1h-1v1h1V71c0,6.948-1.48,15.754,0,20h1c0.02-4.578.52-9.547,2-13h1V76h1V73h1V70h1c0.33-1.333.67-2.667,1-4h1V64c0.67-.333,1.33-0.667,2-1,0.33-1.333.67-2.667,1-4,0.67-.333,1.33-0.667,2-1V56c0.67-.333,1.33-0.667,2-1V53l3-2V49c1.67-1.333,3.33-2.667,5-4l6-7h2c0.67-1,1.33-2,2-3h2c0.67-1,1.33-2,2-3l4-1c0.33-.667.67-1.333,1-2l4-1V27l6-2V24l6-1V22h2V21h4V20h4V19h6V18h10V17h6v1h10v1h6v1h4v1h3v1h3v1h3v1h3v1l6,2v1h2c0.33,0.667.67,1.333,1,2l4,1c0.33,0.667.67,1.333,1,2h2c0.67,1,1.33,2,2,3h2c1.33,1.666,2.67,3.334,4,5h2c0.33,0.667.67,1.333,1,2l3,2v2l6,5v2c0.67,0.333,1.33.667,2,1v2c0.67,0.333,1.33.667,2,1v2c0.67,0.333,1.33.667,2,1,0.33,1.333.67,2.667,1,4h1c0.67,2,1.33,4,2,6h1v3h1v2h1v3h1v4h1v4h1c1.19,3.777-.25,8.433,2,11-0.02-15.645,6.73-28.518,13-38V58h1c0.33-1,.67-2,1-3,0.67-.333,1.33-0.667,2-1V52l6-5V45c0.67-.333,1.33-0.667,2-1l3-4h2l3-4h2c0.67-1,1.33-2,2-3h2c0.33-.667.67-1.333,1-2l4-1C1389.85,22.519,1402.27,17.855,1422,18Zm200,88v89h80c2.5,6.836,1,19.374,1,28v60c-4.59,1.67-12.81,1-19,1H1515v-1l-15-2-19-8c-0.33-.667-0.67-1.333-1-2l-4-1c-0.33-.667-0.67-1.333-1-2l-3-1c-0.67-1-1.33-2-2-3h-2c-0.67-1-1.33-2-2-3q-4.005-3.5-8-7v-2h-2c-1.37-5.259-6.52-9.374-9-14-0.33-1.333-.67-2.667-1-4h-1c-0.33-1.333-.67-2.667-1-4h-1v-3h-1v-2h-1v-3h-1c-0.33-2.666-.67-5.334-1-8h-1v-6h-1q-0.495-19.5-1-39V128c0-7.144-.55-16.475,1-22V93h1V87h1V83h1V79h1V76h1V74h1V71h1c0.67-2,1.33-4,2-6h1V63h1c0.33-1.333.67-2.667,1-4,0.67-.333,1.33-0.667,2-1V56c0.67-.333,1.33-0.667,2-1,0.33-1,.67-2,1-3h1c0.33-1,.67-2,1-3h2c1.14-4.156,4.38-5.394,7-8l3-4h2c0.67-1,1.33-2,2-3h2c0.67-1,1.33-2,2-3l4-1c0.33-.667.67-1.333,1-2l6-2V25h2V24h3V23h2V22l21-5h187c2.5,6.836,1,19.374,1,28v60c-6.33,2.315-17.92,1-26,1h-55Zm372,87v2h73v88c-7.56,2.751-24.31,1-34,1H1713c-2.77-7.6-1-21.554-1-31V186h1v-8h1v-4h1v-4h1v-3h1v-3h1v-3h1c0.67-2,1.33-4,2-6h1v-2h1c0.33-1.333.67-2.667,1-4,0.67-.333,1.33-0.667,2-1v-2c0.67-.333,1.33-0.667,2-1v-2c0.67-.333,1.33-0.667,2-1,0.33-1,.67-2,1-3h1c1.44-1.752,2.27-2.415,3-5h2c3.91-6.549,10.64-9.793,17-14,0.33-.667.67-1.333,1-2h2v-1h2v-1h2v-1h2v-1h2v-1h2v-1h3v-1h2v-1h4l9-3v-1h-73c-0.17-46.443,32.28-76.059,68-87h6c9.59-2.761,23.62-2,36-2h141c10.92,0,22.71-.5,31,2h5c21,6.73,37.48,16.748,49,33l3,2v2c0.67,0.333,1.33.667,2,1,0.33,1.333.67,2.667,1,4,0.67,0.333,1.33.667,2,1q4.005,9.5,8,19c0.33,3,.67,6,1,9h1v7h1c1.59,5.659-.67,26.05-2,30h-1l-3,13h-1c-0.67,2-1.33,4-2,6h-1v2h-1c-0.33,1.333-.67,2.667-1,4-0.67.333-1.33,0.667-2,1v2c-0.67.333-1.33,0.667-2,1v2l-3,2v2c-1.33,1-2.67,2-4,3v2c-1.67,1-3.33,2-5,3v2l-3,1-3,4h-2c-0.33.667-.67,1.333-1,2h-2c-0.33.667-.67,1.333-1,2l-3,1v1l-4,1C2013.38,188.075,2004.31,192.793,1994,193Zm438-86h-73v1h1l24,8v1h2c0.33,0.667.67,1.333,1,2l4,1c0.67,1,1.33,2,2,3h2c0.33,0.667.67,1.333,1,2h2l3,4h2c1.67,2,3.33,4,5,6,0.67,0.333,1.33.667,2,1v2c1.67,1.333,3.33,2.667,5,4v2c0.67,0.333,1.33.667,2,1v2c0.67,0.333,1.33.667,2,1v2c0.67,0.333,1.33.667,2,1v2h1v2h1c0.33,1.667.67,3.333,1,5h1c0.33,1.333.67,2.667,1,4h1q2.505,10.5,5,21c1.33,4.741-.05,17.692-1,21q-0.495,6-1,12h-1v3h-1v3h-1v3h-1v3h-1c-0.67,2-1.33,4-2,6h-1v2h-1c-0.33,1.333-.67,2.667-1,4-0.67.333-1.33,0.667-2,1v2c-0.67.333-1.33,0.667-2,1v2l-3,2c-11.99,16.893-27.35,25.813-49,33h-5c-9.28,2.774-22.95,2-35,2H2181c-13.3,0-25.3.182-35-3h-4c-33.17-11.753-52.22-31.812-63-66q-0.495-7-1-14c-2.92-10.472-1-32.185-1-45V101h1V92q2.505-9,5-18h1c0.33-1.333.67-2.667,1-4h1V67c0.67-.333,1.33-0.667,2-1,0.67-2,1.33-4,2-6h1c0.33-1,.67-2,1-3,0.67-.333,1.33-0.667,2-1V54c1.33-1,2.67-2,4-3V49q4.005-3.5,8-7l3-4h2c0.67-1,1.33-2,2-3h2c0.33-.667.67-1.333,1-2h2c0.33-.667.67-1.333,1-2l6-2c0.33-.667.67-1.333,1-2h2V26h2V25l21-6,34-1h139c8.9,0,20.8-1.053,28,1h7v1l9,1v1l6,1v1h2v1h3v1l6,2v1l4,1c0.33,0.667.67,1.333,1,2h2v1l3,1c0.33,0.667.67,1.333,1,2h2q4.005,4.5,8,9,4.005,3.5,8,7v2l3,2c0.33,1.333.67,2.667,1,4C2426.1,72.793,2432.05,85.9,2432,107ZM1738,86h44c6.39,0,15.19-1.1,20,1v1l4,1c0.33,0.667.67,1.333,1,2,6.26,4.377,8.11,9.238,8,20h-1c-0.33,1.666-.67,3.334-1,5h-1v2c-0.67.333-1.33,0.667-2,1-0.33,1-.67,2-1,3h-2c-0.33.667-.67,1.333-1,2h-2v1h-2v1h-3v1h-5v1h-3v1h-5v1h-4v1l-9,2v1l-6,2v1h-2v1l-3,1c-0.33.667-.67,1.333-1,2h-2l-3,4h-2c-0.33.667-.67,1.333-1,2-1.33,1-2.67,2-4,3v2c-1.33,1-2.67,2-4,3v2c-0.67.333-1.33,0.667-2,1-0.33,1-.67,2-1,3h-1v2h-1c-0.67,2-1.33,4-2,6h-1c-0.67,3-1.33,6-2,9h-1v4h-1v6c-1.58,5.506-1,14.871-1,22v54h315V215h-45c-9.53,0-19.18.705-25-3-0.33-.667-0.67-1.333-1-2h-2c-0.33-1-.67-2-1-3-0.67-.333-1.33-0.667-2-1v-2h-1c-1.97-3.72-2.06-8.29-2-14h1c0.33-1.667.67-3.333,1-5h1v-2c0.67-.333,1.33-0.667,2-1,0.33-1,.67-2,1-3h2c0.33-.667.67-1.333,1-2h2v-1h2v-1h3v-1h3v-1h6v-1h4v-1l9-2v-1l6-2v-1h2v-1l3-1c0.33-.667.67-1.333,1-2h2l3-4h2c0.33-.667.67-1.333,1-2,1.33-1,2.67-2,4-3v-2c1.33-1,2.67-2,4-3v-2c0.67-.333,1.33-0.667,2-1,0.33-1,.67-2,1-3h1v-2h1c0.67-2,1.33-4,2-6h1c0.67-3,1.33-6,2-9h1v-4c3.67-11.443,1.76-25.424-2-35-0.33-2-.67-4-1-6h-1c-0.33-1.333-.67-2.667-1-4h-1c-0.33-1.333-.67-2.667-1-4-0.67-.333-1.33-0.667-2-1V68c-0.67-.333-1.33-0.667-2-1V65c-1.33-1-2.67-2-4-3V60c-0.67-.333-1.33-0.667-2-1l-3-4h-2l-3-4h-2c-0.33-.667-0.67-1.333-1-2l-3-1V47h-2V46l-6-2V43l-9-2V40c-5.08-1.784-13.41-1.991-20-2h-9V37H1845c-10.68,0-25.09-1.5-34,1h-13v1h-6v1h-4v1h-4v1h-2v1h-3v1h-2v1h-3v1h-2v1l-6,2c-0.33.667-.67,1.333-1,2h-2c-0.33.667-.67,1.333-1,2h-2c-0.33.667-.67,1.333-1,2h-2c-1.67,2-3.33,4-5,6-0.67.333-1.33,0.667-2,1v2c-0.67.333-1.33,0.667-2,1v2c-0.67.333-1.33,0.667-2,1v2c-0.67.333-1.33,0.667-2,1v2h-1v2h-1Q1740.005,80.5,1738,86Zm668,1q-1.995-6-4-12c-0.67-.333-1.33-0.667-2-1-0.67-2-1.33-4-2-6l-3-2V64l-3-2V60l-3-1-3-4h-2c-0.33-.667-0.67-1.333-1-2l-3-1V51l-4-1V49h-2V48l-6-2V45h-3V44h-2V43h-3V42l-8-1V40c-8.67-2.651-27.2-1-38-1H2163v1h-6v1h-4v1l-9,2v1l-5,1v1l-4,1v1l-4,1c-0.33.667-.67,1.333-1,2h-2v1l-3,1c-0.33.667-.67,1.333-1,2h-2c-1.33,1.666-2.67,3.334-4,5-0.67.333-1.33,0.667-2,1v2l-3,2v2c-0.67.333-1.33,0.667-2,1v2c-0.67.333-1.33,0.667-2,1v3c-0.67.333-1.33,0.667-2,1v2h-1v2h-1v3h-1v2h-1v3h-1v3h-1v3h-1v5h-1v5h-1v12c-2.4,8.647-1,22.6-1,33,0,28.03-.65,54.724,8,74h1v2h1v2c0.67,0.333,1.33.667,2,1,0.67,2,1.33,4,2,6l3,2c0.33,1,.67,2,1,3h1v2c1.33,1,2.67,2,4,3,0.33,0.667.67,1.333,1,2h2c0.67,1,1.33,2,2,3h2c0.33,0.667.67,1.333,1,2h2c0.33,0.667.67,1.333,1,2l4,1v1l6,2v1h3v1h3v1h3v1l7,1v1c8.68,2.807,29,1,40,1h135l26-1v-1h4v-1l9-2v-1l6-2v-1h2v-1l3-1c0.33-.667.67-1.333,1-2h2l3-4h2c0.33-.667.67-1.333,1-2,1.33-1,2.67-2,4-3v-2c1.33-1,2.67-2,4-3v-2c0.67-.333,1.33-0.667,2-1v-2c0.67-.333,1.33-0.667,2-1,0.33-1.333.67-2.667,1-4,5.91-11.012,11.15-29.051,6-45v-4h-1c-0.67-3-1.33-6-2-9h-1c-0.67-2-1.33-4-2-6h-1v-2h-1c-0.33-1-.67-2-1-3-0.67-.333-1.33-0.667-2-1v-2c-1.33-1-2.67-2-4-3v-2c-1.33-1-2.67-2-4-3-0.33-.667-0.67-1.333-1-2h-2l-3-4h-2c-0.33-.667-0.67-1.333-1-2h-2c-0.33-.667-0.67-1.333-1-2h-2v-1l-6-2v-1l-9-2v-1h-4v-1h-6v-1h-7v-1h-3v-1h-2v-1h-2c-0.33-.667-0.67-1.333-1-2l-3-1v-2c-0.67-.333-1.33-0.667-2-1v-2h-1c-1.94-3.649-3-12.409-1-17h1V98h1V96c0.67-.333,1.33-0.667,2-1V93l3-1c0.33-.667.67-1.333,1-2h2V89h2V88h3V87c5.36-1.8,12.06,0,19,0h42ZM1156,93v2h1V93h-1Z" transform="translate(-1066.91 -16.594)"/>
</svg>
