<svg xmlns="http://www.w3.org/2000/svg" width="1499.9" height="125.069" viewBox="0 0 3287.091 274.094">
  <defs>
    <style>
      .cls-1 {
        fill-rule: evenodd;
      }
    </style>
  </defs>
  <path id="Farbfüllung_2" data-name="Farbfüllung 2" class="cls-1" d="M3126.55,12.951h188v1h7c22.69,6.911,38.59,14.725,51,32q1.995,1.5,4,3v2c0.66,0.333,1.33.667,2,1,0.33,1,.66,2,1,3h1c0.33,1.333.66,2.667,1,4,6.54,10.408,10.99,22.989,11,40v16h-1v6h-1v4h-1v3h-1v3h-1v3h-1v3h-1c-0.34,1.333-.67,2.667-1,4h-1c-0.34,1.333-.67,2.667-1,4-0.67.334-1.34,0.667-2,1-0.34,1.333-.67,2.667-1,4-0.67.334-1.34,0.667-2,1v2l-3,2v2q-2.505,2-5,4v2q-2.01,1.5-4,3v1h-2q-2.01,2.5-4,5h-2c-0.67,1-1.34,2-2,3h-2c-0.34.667-.67,1.334-1,2h-2c-0.34.667-.67,1.334-1,2-1.34.334-2.67,0.667-4,1v1l-6,2v1l-21,6h75v92h-102v-1h-5v-1h-4v-1h-4v-1h-3v-1h-3v-1h-3v-1l-6-2v-1h-2v-1c-1.34-.333-2.67-0.666-4-1-0.34-.666-0.67-1.333-1-2h-2c-0.34-.666-0.67-1.333-1-2h-2c-0.67-1-1.34-2-2-3h-2l-6-7q-3.51-3-7-6v-2l-3-2v-2c-0.67-.333-1.34-0.666-2-1-0.34-1-.67-2-1-3h-1c-0.34-1.333-.67-2.667-1-4h-1v-2c-0.67-.333-1.34-0.666-2-1v-3h-1v-2h-1q-0.51-2.5-1-5h-1v-3h-1v-4h-1c-1.06-3.171-.06-6.806-2-9v76h-89v-270Zm-279,2v89h-58c-4.72,0-18.64-1.071-21,1,7.69-.04,12.76,1.9,18,4h3v1h2v1h3v1h2v1h2v1c1.33,0.334,2.66.667,4,1,0.33,0.667.66,1.334,1,2,1.33,0.334,2.66.667,4,1,0.33,0.667.66,1.334,1,2h2l3,4h2q3.495,4,7,8,1.995,1.5,4,3v2q1.995,1.5,4,3v2c0.66,0.334,1.33.667,2,1v2c0.66,0.334,1.33.667,2,1,0.33,1.333.66,2.667,1,4,0.66,0.334,1.33.667,2,1v2h1v3h1v2h1q0.495,2.5,1,5h1v4h1v3h1v4h1c1.1,3.5,2.33,27.34,1,32h-1v6h-1v4h-1v3h-1v3h-1v3h-1v3h-1q-1.005,3-2,6h-1v2c-0.67.334-1.34,0.667-2,1-0.34,1.333-.67,2.667-1,4-0.67.334-1.34,0.667-2,1v2c-0.67.334-1.34,0.667-2,1-0.34,1-.67,2-1,3q-2.505,2-5,4v2q-2.01,1.5-4,3v1h-2q-2.01,2.5-4,5h-2c-0.67,1-1.34,2-2,3h-2c-0.34.667-.67,1.334-1,2l-3,1v1c-1.34.334-2.67,0.667-4,1v1l-6,2v1h-3v1h-2v1h-3v1h-4c-16.79,5.635-42.65,4-65,4h-136v-89c15.38-2.7,35.88-1,53-1,6.75,0,16.13,1.28,20,0v-1c-7.09-.014-10.22-2.07-15-4h-3v-1h-2v-1h-2v-1h-2v-1c-1.34-.333-2.67-0.666-4-1v-1c-1.34-.333-2.67-0.666-4-1-0.34-.666-0.67-1.333-1-2h-2c-0.67-1-1.34-2-2-3h-2l-3-4h-2q-2.01-2.5-4-5c-0.67-.333-1.34-0.666-2-1v-2q-2.505-2-5-4v-2l-3-2v-2c-0.67-.333-1.34-0.666-2-1-0.34-1.333-.67-2.667-1-4-0.67-.333-1.34-0.666-2-1v-2h-1c-0.34-1.333-.67-2.667-1-4h-1v-3h-1v-2h-1v-3h-1v-3c-1.66-4.257-6.04-18.778-4-26h1q0.495-9.5,1-19h1v-4h1v-3h1v-3h1v-3h1v-3h1q0.99-3,2-6h1v-2c0.66-.333,1.33-0.667,2-1,0.33-1.333.66-2.667,1-4,0.66-.333,1.33-0.667,2-1v-2c0.66-.333,1.33-0.667,2-1,0.33-1,.66-2,1-3q2.49-2,5-4v-2q1.995-1.5,4-3v-1h2q1.995-2.5,4-5h2c0.66-1,1.33-2,2-3h2c0.33-.667.66-1.333,1-2l3-1v-1c1.33-.333,2.66-0.667,4-1v-1l6-2v-1h3v-1h2v-1h3v-1h4c16.78-5.634,42.65-4,65-4h136Zm272,89c0.08,19.184-2.89,30.385-10,42q-1.005,3-2,6c-0.67.334-1.34,0.667-2,1v2l-3,2v2q-2.01,1.5-4,3v2q-3.51,3-7,6c-0.34.667-.67,1.334-1,2h-2l-3,4-3,1c-0.34.667-.67,1.334-1,2-1.34.334-2.67,0.667-4,1-0.34.667-.67,1.334-1,2-1.34.334-2.67,0.667-4,1v1c-1.34.334-2.67,0.667-4,1v1c-1.67.334-3.34,0.667-5,1v1h-2v1l-7,1v1c-3.17,1.108-7.78.066-10,2h75v89h-189v-1h-5v-1h-4v-1h-4v-1h-3v-1h-3v-1h-3v-1l-6-2v-1h-2v-1c-1.34-.333-2.67-0.666-4-1-0.34-.666-0.67-1.333-1-2h-2c-0.34-.666-0.67-1.333-1-2h-2c-0.67-1-1.34-2-2-3h-2l-6-7q-3.51-3-7-6v-2l-3-2v-2c-0.67-.333-1.34-0.666-2-1v-2c-0.67-.333-1.34-0.666-2-1q-1.005-3-2-6c-0.67-.333-1.34-0.666-2-1v-3h-1v-2h-1q-0.51-2.5-1-5h-1v-3h-1v-4h-1v-4h-1v-5h-1v-11c-1.47-5.245-1-14.149-1-21v-159a10.55,10.55,0,0,1,4-1v1h1c3.19-1.284,9.27-1,14-1h231c4.94,0,11.62-.621,15,1v-1h1v17h-1v5h-1v3h-1v4h-1v2h-1q-0.51,3-1,6h-1c-0.34,1.333-.67,2.667-1,4h-1v2c-0.67.333-1.34,0.667-2,1q-1.005,3-2,6l-3,2v2q-2.01,1.5-4,3v2q-3.51,3-7,6-2.01,2.5-4,5h-2c-0.67,1-1.34,2-2,3h-2c-0.34.667-.67,1.333-1,2h-2c-0.34.667-.67,1.333-1,2l-6,2c-0.34.667-.67,1.333-1,2-1.67.333-3.34,0.667-5,1v1h-2v1l-18,5h73Zm-1364-87h89v82h89v-82h89v138c0,20.735,2.55,52.352-3,68h-1q-0.51,3-1,6h-1c-0.34,1.333-.67,2.667-1,4h-1v3c-0.67.334-1.34,0.667-2,1v2h-1q-1,3-2,6c-0.67.334-1.34,0.667-2,1v2c-0.67.334-1.34,0.667-2,1-0.34,1-.67,2-1,3q-2.01,1.5-4,3v2l-6,5c-0.34.667-.67,1.334-1,2h-2q-2.01,2.5-4,5h-2c-0.34.667-.67,1.334-1,2h-2c-0.67,1-1.34,2-2,3l-6,2v1l-6,2v1l-21,6h-11c-5.53,1.537-14.86,1-22,1h-40c-18.93,0-39,.718-53-4h-4v-1h-3v-1h-2v-1h-3v-1l-6-2v-1l-6-2c-0.67-1-1.34-2-2-3h-2c-0.34-.666-0.67-1.333-1-2h-2q-2.01-2.5-4-5h-2q-2.5-3-5-6c-0.67-.333-1.34-0.666-2-1v-2q-2.01-1.5-4-3c-0.34-1-.67-2-1-3-0.67-.333-1.34-0.666-2-1v-2c-0.67-.333-1.34-0.666-2-1q-1-3-2-6h-1v-2c-0.67-.333-1.34-0.666-2-1v-3h-1c-0.34-1.333-.67-2.667-1-4h-1q-0.51-3-1-6h-1c-5.82-16.5-3-46.621-3-68v-138Zm543,178v89h-190v-1h-5v-1h-4v-1h-4v-1h-3v-1h-3v-1h-3v-1l-6-2v-1h-2v-1c-1.34-.333-2.67-0.666-4-1-0.34-.666-0.67-1.333-1-2h-2c-0.34-.666-0.67-1.333-1-2h-2c-0.67-1-1.34-2-2-3h-2l-6-7q-3.51-3-7-6v-2l-3-2v-2c-0.67-.333-1.34-0.666-2-1v-2c-0.67-.333-1.34-0.666-2-1q-1-3-2-6c-0.67-.333-1.34-0.666-2-1v-3h-1v-2h-1q-0.51-2.5-1-5h-1v-3h-1v-4h-1v-4h-1v-5h-1v-11c-1.47-5.245-1-14.149-1-21v-159a10.55,10.55,0,0,1,4-1v1h1v-1h245c5.72,0,14.63-.337,16,1h1v8h-1v8h-1v5h-1v3h-1v4h-1v2h-1v3h-1v3h-1c-0.34,1.333-.67,2.667-1,4h-1v2c-0.67.333-1.34,0.667-2,1q-1.005,3-2,6c-0.67.333-1.34,0.667-2,1-0.34,1-.67,2-1,3q-2.01,1.5-4,3v2q-2.505,2-5,4l-6,7h-2c-0.67,1-1.34,2-2,3h-2c-0.34.667-.67,1.333-1,2h-2c-0.34.667-.67,1.333-1,2l-6,2c-0.34.667-.67,1.333-1,2-1.67.333-3.34,0.667-5,1v1h-2v1l-18,5h73c0.87,2.316,1.01,4.407,1,8q-2.01,10-4,20h-1q-0.51,3-1,6h-1c-0.34,1.333-.67,2.667-1,4h-1v3c-0.67.334-1.34,0.667-2,1v2h-1c-0.34,1.333-.67,2.667-1,4-0.67.334-1.34,0.667-2,1v2c-0.67.334-1.34,0.667-2,1-0.34,1-.67,2-1,3q-2.01,1.5-4,3v2q-3.51,3-7,6c-0.34.667-.67,1.334-1,2h-2l-3,4-3,1c-0.34.667-.67,1.334-1,2-1.34.334-2.67,0.667-4,1-0.34.667-.67,1.334-1,2-1.34.334-2.67,0.667-4,1v1c-1.34.334-2.67,0.667-4,1v1h-3v1c-1.34.334-2.67,0.667-4,1v1h-4v1h-3v1c-3.16,1.107-7.79.064-10,2h76Zm274-178v89h-58c-4.72,0-18.64-1.071-21,1,7.69-.04,12.76,1.9,18,4h3v1h2v1h3v1h2v1h2v1c1.33,0.334,2.66.667,4,1,0.33,0.667.66,1.334,1,2,1.33,0.334,2.66.667,4,1,0.33,0.667.66,1.334,1,2h2l3,4h2q3.495,4,7,8,1.995,1.5,4,3v2q1.995,1.5,4,3v2c0.66,0.334,1.33.667,2,1v2c0.66,0.334,1.33.667,2,1,0.33,1.333.66,2.667,1,4,0.66,0.334,1.33.667,2,1v2h1v3h1v2h1q0.495,2.5,1,5h1v4h1v3h1v4h1c1.1,3.5,2.33,27.34,1,32h-1v6h-1v4h-1v3h-1v3h-1v3h-1v3h-1q-1.005,3-2,6h-1v2c-0.67.334-1.34,0.667-2,1-0.34,1.333-.67,2.667-1,4-0.67.334-1.34,0.667-2,1v2c-0.67.334-1.34,0.667-2,1-0.34,1-.67,2-1,3q-2.505,2-5,4v2q-2.01,1.5-4,3v1h-2q-2.01,2.5-4,5h-2c-0.67,1-1.34,2-2,3h-2c-0.34.667-.67,1.334-1,2l-3,1v1c-1.34.334-2.67,0.667-4,1v1l-6,2v1h-3v1h-2v1h-3v1h-4c-16.79,5.635-42.65,4-65,4h-136v-89c15.38-2.7,35.88-1,53-1,6.75,0,16.13,1.28,20,0v-1c-7.09-.014-10.22-2.07-15-4h-3v-1h-2v-1h-2v-1h-2v-1c-1.34-.333-2.67-0.666-4-1v-1c-1.34-.333-2.67-0.666-4-1-0.34-.666-0.67-1.333-1-2h-2c-0.67-1-1.34-2-2-3h-2l-3-4h-2q-2.01-2.5-4-5c-0.67-.333-1.34-0.666-2-1v-2q-2.505-2-5-4v-2l-3-2v-2c-0.67-.333-1.34-0.666-2-1-0.34-1.333-.67-2.667-1-4-0.67-.333-1.34-0.666-2-1v-2h-1c-0.34-1.333-.67-2.667-1-4h-1v-3h-1v-2h-1v-3h-1v-3c-1.66-4.257-6.04-18.778-4-26h1q0.495-9.5,1-19h1v-4h1v-3h1v-3h1v-3h1v-3h1q0.99-3,2-6h1v-2c0.66-.333,1.33-0.667,2-1,0.33-1.333.66-2.667,1-4,0.66-.333,1.33-0.667,2-1v-2c0.66-.333,1.33-0.667,2-1,0.33-1,.66-2,1-3q2.49-2,5-4v-2q1.995-1.5,4-3v-1h2q1.995-2.5,4-5h2c0.66-1,1.33-2,2-3h2c0.33-.667.66-1.333,1-2l3-1v-1c1.33-.333,2.66-0.667,4-1v-1l6-2v-1h3v-1h2v-1h3v-1h4c16.78-5.634,42.65-4,65-4h136Zm-2111,3v136c0,21.081,2.763,50.794-3,67q-4,9.5-8,19l-2,1v2h-1q-0.5,1.5-1,3l-2,1v2l-5,4v2l-7,6-1,2h-2l-3,4h-2l-1,2h-2l-1,2-4,1-1,2h-2v1h-2v1h-3v1l-4,1v1h-3c-8.877,3.532-26.625,7.532-39,4h-7v-1l-8-1v-1l-6-1v-1l-5-1v-1l-4-1v-1h-2q-0.5-1-1-2l-4-1q-0.5-1-1-2h-2q-0.5-1-1-2h-2l-2-3h-2l-4-5-7-6v-2l-3-2v-2l-3-2q-0.5-2-1-4-1-.5-2-1-0.5-2-1-4h-1q-1-3-2-6h-1q-0.5-3-1-6h-1v-3h-1v-3h-1v-3h-1c-1.42-4.413.97-6.941-2-10,0.07,13.155-4.947,23.825-10,32q-0.5,2-1,4l-2,1v2h-1v2l-3,2v2l-4,3v2l-6,5-1,2h-2l-3,4h-2l-2,3h-2l-1,2-6,2-1,2h-2v1h-3v1h-2v1l-5,1v1h-4c-8.579,2.893-24.524,6.343-36,3h-6v-1h-4v-1h-4v-1h-3v-1h-3v-1h-3v-1l-6-2v-1h-2v-1l-4-1-1-2h-2l-1-2h-2l-2-3h-2l-6-7-8-7v-2h-1q-0.5-1.5-1-3l-3-2q-1-3-2-6-1-.5-2-1v-2h-1v-2h-1v-3h-1v-3h-1q-0.5-2-1-4h-1v-4h-1v-4h-1v-5h-1v-9c-1.549-5.524-1-14.856-1-22v-161c6.583-2.407,18.647-1,27-1h58v1h1v-1c1.37,0.352-.361.616,1,1l2-1v1h1v1h-1c-0.236,1.394.644-.369,1,1v51c0,6.948-1.482,15.754,0,20h1c0.016-4.578.517-9.547,2-13h1v-2h1v-3h1v-3h1q0.5-2,1-4h1v-2l2-1q0.5-2,1-4l2-1v-2l2-1v-2l3-2v-2l5-4,6-7h2l2-3h2l2-3,4-1,1-2,4-1v-1l6-2v-1l6-1v-1h2v-1h4v-1h4v-1h6v-1h10v-1h6v1h10v1h6v1h4v1h3v1h3v1h3v1h3v1l6,2v1h2l1,2,4,1,1,2h2l2,3h2l4,5h2l1,2,3,2v2l6,5v2l2,1v2l2,1v2l2,1q0.5,2,1,4h1q1,3,2,6h1v3h1v2h1v3h1v4h1v4h1c1.193,3.778-.247,8.433,2,11-0.015-15.645,6.726-28.518,13-38v-2h1l1-3,2-1v-2l6-5v-2l2-1,3-4h2l3-4h2l2-3h2l1-2,4-1C429.4,24.471,441.815,19.806,461.547,19.951Zm200,88v89h80c2.5,6.837,1,19.374,1,28v60c-4.587,1.671-12.814,1-19,1h-169v-1l-15-2-19-8q-0.5-1-1-2l-4-1q-0.5-1-1-2l-3-1-2-3h-2l-2-3-8-7v-2h-2c-1.367-5.259-6.524-9.374-9-14q-0.5-2-1-4h-1q-0.5-2-1-4h-1v-3h-1v-2h-1v-3h-1q-0.5-4-1-8h-1v-6h-1q-0.5-19.5-1-39v-41c0-7.144-.547-16.474,1-22v-13h1v-6h1v-4h1v-4h1v-3h1v-2h1v-3h1q1-3,2-6h1v-2h1q0.5-2,1-4l2-1v-2l2-1,1-3h1l1-3h2c1.143-4.156,4.38-5.394,7-8l3-4h2l2-3h2l2-3,4-1,1-2,6-2v-1h2v-1h3v-1h2v-1l21-5h187c2.5,6.836,1,19.374,1,28v60c-6.331,2.316-17.92,1-26,1h-55Zm372,87v2h73v88c-7.56,2.751-24.31,1-34,1h-320c-2.775-7.6-1-21.554-1-31v-67h1v-8h1v-4h1v-4h1v-3h1v-3h1v-3h1q1-3,2-6h1v-2h1q0.5-2,1-4l2-1v-2l2-1v-2l2-1q0.5-1.5,1-3h1c1.442-1.752,2.27-2.414,3-5h2c3.91-6.548,10.639-9.793,17-14q0.5-1,1-2h2v-1h2v-1h2v-1h2v-1h2v-1h2v-1h3v-1h2v-1h4l9-3v-1h-73c-0.169-46.443,32.284-76.059,68-87h6c9.588-2.761,23.623-2,36-2h141c10.91,0,22.7-.5,31,2h5c21,6.731,37.48,16.748,49,33l3,2v2c0.66,0.333,1.33.667,2,1,0.33,1.333.66,2.667,1,4,0.66,0.333,1.33.667,2,1q3.99,9.5,8,19,0.5,4.5,1,9h1v7h1c1.58,5.659-.68,26.051-2,30h-1l-3,13h-1q-1,3-2,6h-1v2h-1c-0.34,1.333-.67,2.667-1,4-0.67.334-1.34,0.667-2,1v2c-0.67.334-1.34,0.667-2,1v2l-3,2v2q-2.01,1.5-4,3v2q-2.5,1.5-5,3v2l-3,1-3,4h-2c-0.34.667-.67,1.334-1,2h-2c-0.34.667-.67,1.334-1,2l-3,1v1l-4,1C1052.92,190.026,1043.86,194.744,1033.55,194.951Zm713-176v88h-51c-4.93,0-16.1-1.547-19,1q3.5,0.5,7,1v1h4v1c1.33,0.334,2.66.667,4,1v1h3v1h2v1h2v1c1.33,0.334,2.66.667,4,1,0.33,0.667.66,1.334,1,2,1.33,0.334,2.66.667,4,1,0.66,1,1.33,2,2,3h2l3,4c13.92,10.017,22.79,25.343,29,43v4c3.39,10.416,3,24.9,3,39v73h-190v-1h-5v-1h-4v-1h-4v-1h-3v-1h-3v-1h-3v-1l-6-2v-1h-2v-1c-1.34-.333-2.67-0.666-4-1-0.34-.666-0.67-1.333-1-2h-2c-0.34-.666-0.67-1.333-1-2h-2c-0.67-1-1.34-2-2-3h-2l-6-7q-3.51-3-7-6v-2l-3-2v-2c-0.67-.333-1.34-0.666-2-1v-2c-0.67-.333-1.34-0.666-2-1q-1-3-2-6c-0.67-.333-1.34-0.666-2-1v-3h-1v-2h-1q-0.51-2.5-1-5h-1v-3h-1v-4h-1v-4h-1v-5h-1v-11c-1.46-5.248-1-14.147-1-21v-38c0-19.792-.96-41.29,4-56q0.5-3.5,1-7h1v-2h1v-3h1v-2h1v-3c0.66-.333,1.33-0.667,2-1q0.99-3,2-6c0.66-.333,1.33-0.667,2-1v-2c0.66-.333,1.33-0.667,2-1v-2l3-2v-2l6-5q3.5-4,7-8h2c0.66-1,1.33-2,2-3h2c0.33-.667.66-1.333,1-2h2c0.33-.667.66-1.333,1-2,1.33-.333,2.66-0.667,4-1v-1h2v-1l6-2v-1h3v-1h3v-1h3v-1h4v-1h4v-1l21-1h174Zm-275,90h-73v1h1l24,8v1h2c0.33,0.667.66,1.334,1,2,1.33,0.334,2.66.667,4,1,0.66,1,1.33,2,2,3h2c0.33,0.667.66,1.334,1,2h2l3,4h2q2.49,3,5,6c0.66,0.334,1.33.667,2,1v2q2.49,2,5,4v2c0.66,0.334,1.33.667,2,1v2c0.66,0.334,1.33.667,2,1v2c0.66,0.334,1.33.667,2,1v2h1v2h1q0.5,2.5,1,5h1c0.33,1.333.66,2.667,1,4h1q2.49,10.5,5,21c1.33,4.741-.06,17.693-1,21q-0.51,6-1,12h-1v3h-1v3h-1v3h-1v3h-1q-1,3-2,6h-1v2h-1c-0.34,1.333-.67,2.667-1,4-0.67.334-1.34,0.667-2,1v2c-0.67.334-1.34,0.667-2,1v2l-3,2c-12,16.893-27.35,25.814-49,33h-5c-9.29,2.775-22.95,2-35,2h-143c-13.3,0-25.31.182-35-3h-4c-33.17-11.753-52.22-31.812-63-66q-0.51-7-1-14c-2.92-10.472-1-32.185-1-45v-56h1v-9q2.49-9,5-18h1c0.33-1.333.66-2.667,1-4h1v-3c0.66-.333,1.33-0.667,2-1q0.99-3,2-6h1c0.33-1,.66-2,1-3,0.66-.333,1.33-0.667,2-1v-2q2-1.5,4-3v-2q3.99-3.5,8-7l3-4h2c0.66-1,1.33-2,2-3h2c0.33-.667.66-1.333,1-2h2c0.33-.667.66-1.333,1-2l6-2c0.33-.667.66-1.333,1-2h2v-1h2v-1l21-6,34-1h139c8.89,0,20.8-1.053,28,1h7v1l9,1v1l6,1v1h2v1h3v1l6,2v1c1.33,0.333,2.66.667,4,1,0.33,0.667.66,1.333,1,2h2v1l3,1c0.33,0.667.66,1.333,1,2h2q3.99,4.5,8,9,3.99,3.5,8,7v2l3,2c0.33,1.333.66,2.667,1,4C1465.65,74.745,1471.6,87.853,1471.55,108.951Zm-694-21h44c6.394,0,15.19-1.1,20,1v1l4,1,1,2c6.259,4.377,8.114,9.238,8,20h-1q-0.5,2.5-1,5h-1v2l-2,1q-0.5,1.5-1,3h-2q-0.5,1-1,2h-2v1h-2v1h-3v1h-5v1h-3v1h-5v1h-4v1l-9,2v1l-6,2v1h-2v1l-3,1q-0.5,1-1,2h-2l-3,4h-2q-0.5,1-1,2l-4,3v2l-4,3v2l-2,1q-0.5,1.5-1,3h-1v2h-1q-1,3-2,6h-1q-1,4.5-2,9h-1v4h-1v6c-1.585,5.506-1,14.871-1,22v54h315v-49h-45c-9.54,0-19.18.705-25-3-0.34-.666-0.67-1.333-1-2h-2c-0.34-1-.67-2-1-3-0.67-.333-1.34-0.666-2-1v-2h-1c-1.97-3.719-2.06-8.29-2-14h1q0.5-2.5,1-5h1v-2c0.66-.333,1.33-0.666,2-1,0.33-1,.66-2,1-3h2c0.33-.666.66-1.333,1-2h2v-1h2v-1h3v-1h3v-1h6v-1h4v-1l9-2v-1l6-2v-1h2v-1l3-1c0.33-.666.66-1.333,1-2h2l3-4h2c0.33-.666.66-1.333,1-2q2-1.5,4-3v-2q2-1.5,4-3v-2c0.66-.333,1.33-0.666,2-1,0.33-1,.66-2,1-3h1v-2h1q0.99-3,2-6h1q0.99-4.5,2-9h1v-4c3.66-11.443,1.76-25.424-2-35q-0.51-3-1-6h-1c-0.34-1.333-.67-2.667-1-4h-1c-0.34-1.333-.67-2.667-1-4-0.67-.333-1.34-0.667-2-1v-2c-0.67-.333-1.34-0.667-2-1v-2q-2.01-1.5-4-3v-2c-0.67-.333-1.34-0.667-2-1l-3-4h-2l-3-4h-2c-0.34-.667-0.67-1.333-1-2l-3-1v-1h-2v-1l-6-2v-1l-9-2v-1c-5.09-1.784-13.42-1.991-20-2h-9v-1h-123c-10.68,0-25.093-1.5-34,1h-13v1h-6v1h-4v1h-4v1h-2v1h-3v1h-2v1h-3v1h-2v1l-6,2-1,2h-2l-1,2h-2l-1,2h-2l-5,6-2,1v2l-2,1v2l-2,1v2l-2,1v2h-1v2h-1Zm668,1q-2.01-6-4-12c-0.67-.333-1.34-0.667-2-1q-1-3-2-6l-3-2v-2l-3-2v-2l-3-1-3-4h-2c-0.34-.667-0.67-1.333-1-2l-3-1v-1c-1.34-.333-2.67-0.667-4-1v-1h-2v-1l-6-2v-1h-3v-1h-2v-1h-3v-1l-8-1v-1c-8.67-2.651-27.2-1-38-1h-151v1h-6v1h-4v1l-9,2v1c-1.67.333-3.34,0.667-5,1v1c-1.34.333-2.67,0.667-4,1v1c-1.34.333-2.67,0.667-4,1-0.34.667-.67,1.333-1,2h-2v1l-3,1c-0.34.667-.67,1.333-1,2h-2q-2.01,2.5-4,5c-0.67.333-1.34,0.667-2,1v2l-3,2v2c-0.67.333-1.34,0.667-2,1v2c-0.67.333-1.34,0.667-2,1v3c-0.67.333-1.34,0.667-2,1v2h-1v2h-1v3h-1v2h-1v3h-1v3h-1v3h-1v5h-1v5h-1v12c-2.4,8.647-1,22.6-1,33,0,28.03-.66,54.724,8,74h1v2h1v2c0.66,0.334,1.33.667,2,1q0.99,3,2,6l3,2c0.33,1,.66,2,1,3h1v2q2,1.5,4,3c0.33,0.667.66,1.334,1,2h2c0.66,1,1.33,2,2,3h2c0.33,0.667.66,1.334,1,2h2c0.33,0.667.66,1.334,1,2,1.33,0.334,2.66.667,4,1v1l6,2v1h3v1h3v1h3v1q3.5,0.5,7,1v1c8.68,2.808,29,1,40,1h135l26-1v-1h4v-1l9-2v-1l6-2v-1h2v-1l3-1c0.33-.666.66-1.333,1-2h2l3-4h2c0.33-.666.66-1.333,1-2q2-1.5,4-3v-2q2-1.5,4-3v-2c0.66-.333,1.33-0.666,2-1v-2c0.66-.333,1.33-0.666,2-1,0.33-1.333.66-2.667,1-4,5.91-11.012,11.15-29.051,6-45v-4h-1q-1-4.5-2-9h-1q-1-3-2-6h-1v-2h-1c-0.34-1-.67-2-1-3-0.67-.333-1.34-0.666-2-1v-2q-2.01-1.5-4-3v-2q-2.01-1.5-4-3c-0.34-.666-0.67-1.333-1-2h-2l-3-4h-2c-0.34-.666-0.67-1.333-1-2h-2c-0.34-.666-0.67-1.333-1-2h-2v-1l-6-2v-1l-9-2v-1h-4v-1h-6v-1h-7v-1h-3v-1h-2v-1h-2c-0.34-.666-0.67-1.333-1-2l-3-1v-2c-0.67-.333-1.34-0.666-2-1v-2h-1c-1.94-3.649-3.01-12.408-1-17h1v-2h1v-2c0.66-.333,1.33-0.667,2-1v-2l3-1c0.33-.667.66-1.333,1-2h2v-1h2v-1h3v-1c5.36-1.8,12.05,0,19,0h42Zm-1250,6v2h1C195.973,94.942,196.667,96.086,195.547,94.951Zm2460,97c1.14,1.139,0,.4,2,1C2656.41,191.813,2657.54,192.553,2655.55,191.951Zm-275,2c1.14,1.139,0,.4,2,1C2381.41,193.813,2382.54,194.553,2380.55,193.951Z" transform="translate(-106.469 -12.938)"/>
</svg>
